<svg fill="none" height="170" opacity=".25" width="327" xmlns="http://www.w3.org/2000/svg"><g opacity=".4" stroke-dasharray="1 1" stroke-linecap="round" stroke-linejoin="round" stroke-miterlimit="10"><path d="M796.5 78.56C256.37 274.63 222.07-177.9-600.6 185.53" stroke="#fff" stroke-width="3"/><path d="M798.47 63.63C242.09 276.1 201.4-193.64-602.08 158.13" stroke="#f8fafd" stroke-width="2.94"/><path d="M800.27 48.7C227.5 277.58 180.74-209.4-603.72 130.57" stroke="#f2f5fb" stroke-width="2.87"/><path d="M802.24 33.77C213.05 278.89 160.05-225.15-605.36 103" stroke="#ebf0f9" stroke-width="2.81"/><path d="M804.05 18.67C198.6 280.21 139.38-241.06-607 75.44" stroke="#e5ebf7" stroke-width="2.74"/><path d="M806.02 3.74C184.17 281.68 118.7-256.81-608.48 48.04" stroke="#dee6f5" stroke-width="2.68"/><path d="M807.99-11.2C169.74 283.17 98.03-272.55-609.95 20.65" stroke="#d8e1f3" stroke-width="2.61"/><path d="M809.8-26.12C155.3 284.64 77.35-288.32-611.6-6.92" stroke="#d1dcf1" stroke-width="2.55"/><path d="M811.76-41.22c-670.9 327.17-754.9-263-1424.83 6.73" stroke="#cbd6ef" stroke-width="2.48"/><path d="M813.73-56.15C126.42 287.43 36.18-319.98-614.54-62.05" stroke="#c4d1ed" stroke-width="2.42"/><path d="M815.53-71.08C111.98 288.9 15.5-335.73-616.19-89.46" stroke="#becceb" stroke-width="2.35"/><path d="M817.5-86.01C97.54 290.21-5.17-351.48-617.83-116.86" stroke="#b7c7e9" stroke-width="2.29"/><path d="M819.3-100.94C82.95 291.86-25.83-367.24-619.3-144.42" stroke="#b0c2e7" stroke-width="2.23"/><path d="M821.28-116.04C68.66 293-46.52-383.15-620.94-171.98" stroke="#aabde5" stroke-width="2.16"/><path d="M823.25-130.97C54.23 294.48-67.2-398.9-622.42-199.39" stroke="#a3b8e3" stroke-width="2.1"/><path d="M825.05-145.9C39.62 295.96-87.86-414.65-624.06-226.95" stroke="#9db3e1" stroke-width="2.03"/></g></svg>
