<svg fill="none" height="170" opacity=".25" width="327" xmlns="http://www.w3.org/2000/svg"><g opacity=".4" stroke-dasharray="1 1" stroke-linecap="round" stroke-linejoin="round" stroke-miterlimit="10"><path d="M-644.62 440.13C-311.46-28.06-26.2 324.9 444.44-441.51" stroke="#fff" stroke-width="3"/><path d="M-637.76 453.53C-300.55-37.37-.23 326.12 461.22-419.8" stroke="#f8fafd" stroke-width="2.94"/><path d="M-630.76 466.85C-289.37-46.9 25.74 327.34 478.23-398.04" stroke="#f2f5fb" stroke-width="2.87"/><path d="M-623.9 480.25C-278.23-56.17 51.7 328.55 495.24-376.29" stroke="#ebf0f9" stroke-width="2.81"/><path d="M-616.82 493.7C-267.09-65.45 77.75 329.91 512.24-354.53" stroke="#e5ebf7" stroke-width="2.74"/><path d="M-609.96 507.1C-256.05-74.86 103.71 331.14 529.02-332.81" stroke="#dee6f5" stroke-width="2.68"/><path d="M-603.1 520.51C-245-84.29 129.68 332.35 545.8-311.1" stroke="#d8e1f3" stroke-width="2.61"/><path d="M-596.1 533.83C-233.96-93.7 155.63 333.57 562.81-289.35" stroke="#d1dcf1" stroke-width="2.55"/><path d="M-589.14 547.37c366.32-650.35 770.7-212.35 1168.82-814.88" stroke="#cbd6ef" stroke-width="2.48"/><path d="M-582.28 560.78c370.5-673.18 789.8-224.54 1178.84-806.44" stroke="#c4d1ed" stroke-width="2.42"/><path d="M-575.29 574.09c374.56-695.9 808.76-236.63 1188.76-798.13" stroke="#becceb" stroke-width="2.35"/><path d="M-568.43 587.5C-189.6-131.1 259.44 338.68 630.38-202.42" stroke="#b7c7e9" stroke-width="2.29"/><path d="M-561.43 600.8C-178.51-140.73 285.4 339.9 647.26-180.56" stroke="#b0c2e7" stroke-width="2.23"/><path d="M-554.48 614.35C-167.4-149.79 311.45 341.26 664.27-158.82" stroke="#aabde5" stroke-width="2.16"/><path d="M-547.62 627.76c391.25-786.97 885.04-285.28 1228.66-764.87" stroke="#a3b8e3" stroke-width="2.1"/><path d="M-540.62 641.07c395.43-809.8 904-297.37 1238.67-756.42" stroke="#9db3e1" stroke-width="2.03"/><path d="M-533.76 654.48c399.61-832.62 923.2-309.43 1248.68-747.99" stroke="#96aede" stroke-width="1.97"/><path d="M-526.8 668.02C-123-187.42 415.4 346.28 731.7-71.8" stroke="#90a9dc" stroke-width="1.9"/><path d="M-519.81 681.33C-111.96-196.84 441.22 347.6 748.7-50.04" stroke="#89a4da" stroke-width="1.84"/><path d="M-512.95 694.74c412.03-901 980.13-345.93 1278.44-723.07" stroke="#839fd8" stroke-width="1.77"/><path d="M-506.09 708.14C-90.01-215.58 493.24 350.16 782.36-6.48" stroke="#7c9ad6" stroke-width="1.71"/><path d="M-499 721.6C-78.74-224.96 519.2 351.38 799.37 15.26" stroke="#7595d4" stroke-width="1.65"/><path d="M-492.14 735C-67.6-234.24 545.26 352.74 816.38 37.03" stroke="#6f90d2" stroke-width="1.58"/><path d="M-485.14 748.32C-56.56-243.65 571.2 353.96 833.16 58.74" stroke="#688bd0" stroke-width="1.52"/><path d="M-478.28 761.72C-45.51-253.07 597.17 355.18 850.08 80.36" stroke="#6285ce" stroke-width="1.45"/><path d="M-471.42 775.13C-34.47-262.5 623.14 356.4 866.95 102.2" stroke="#5b80cc" stroke-width="1.39"/><path d="M-464.33 788.58C-23.33-271.77 649.1 357.62 883.94 123.96" stroke="#557bca" stroke-width="1.32"/><path d="M-457.47 801.98c445.18-1083.16 1132.62-443 1358.2-656.3" stroke="#4e76c8" stroke-width="1.26"/><path d="M-450.61 815.39C-1.24-290.61 701.12 360.2 917.74 167.43" stroke="#4871c6" stroke-width="1.19"/><path d="M-443.62 828.7C9.8-300.02 727.08 361.42 934.52 189.14" stroke="#416cc4" stroke-width="1.13"/><path d="M-436.66 842.25C20.94-309.3 753 362.87 951.62 211.02" stroke="#3b67c2" stroke-width="1.06"/><path d="M-429.67 855.56C32.12-318.81 779.1 364 968.53 232.65" stroke="#3462c0"/></g></svg>
