<svg fill="none" height="170" opacity=".25" width="327" xmlns="http://www.w3.org/2000/svg"><g opacity=".4" stroke-dasharray="1 1" stroke-linecap="round" stroke-linejoin="round" stroke-miterlimit="10"><path d="M-555.3 73.06C-18.23-131.24 22.98 320.7 840-55.26" stroke="#fff" stroke-width="3"/><path d="M-557.04 88.02C-3.99-132.93 43.88 336.14 841.89-27.88" stroke="#f8fafd" stroke-width="2.94"/><path d="M-558.62 102.98C10.6-134.63 64.8 351.57 843.95-.35" stroke="#f2f5fb" stroke-width="2.87"/><path d="M-560.36 117.94C25.02-136.16 85.7 367 846.02 27.19" stroke="#ebf0f9" stroke-width="2.81"/><path d="M-561.93 133.06C39.43-137.7 106.63 382.6 848.07 54.72" stroke="#e5ebf7" stroke-width="2.74"/><path d="M-563.68 148.02C53.85-139.4 127.54 398.03 849.97 82.1" stroke="#dee6f5" stroke-width="2.68"/><path d="M-565.42 162.98c633.68-304.07 713.87 250.49 1417.29-53.5" stroke="#d8e1f3" stroke-width="2.61"/><path d="M-567 177.94C82.69-142.8 169.37 428.9 853.94 137" stroke="#d1dcf1" stroke-width="2.55"/><path d="M-568.73 193.06C97.09-144.33 190.11 444.5 855.83 164.55" stroke="#cbd6ef" stroke-width="2.48"/><path d="M-570.47 208.02c681.98-354.04 781.5 251.91 1428.2-15.93" stroke="#c4d1ed" stroke-width="2.42"/><path d="M-572.05 222.98c697.97-370.7 803.99 252.39 1431.84-3.52" stroke="#becceb" stroke-width="2.35"/><path d="M-573.79 237.93c714.13-387.18 826.64 252.87 1435.63 8.9" stroke="#b7c7e9" stroke-width="2.29"/><path d="M-575.36 252.9c730.27-404.02 849.12 253.33 1439.1 21.47" stroke="#b0c2e7" stroke-width="2.23"/><path d="M-577.1 268.01c746.27-420.5 871.77 253.82 1442.9 33.9" stroke="#aabde5" stroke-width="2.16"/><path d="M-578.84 282.97c762.42-437.15 894.43 254.3 1446.54 46.31" stroke="#a3b8e3" stroke-width="2.1"/><path d="M-580.42 297.93C198.16-155.88 336.5 552.69 869.76 356.82" stroke="#9db3e1" stroke-width="2.03"/><path d="M-582.16 312.89c794.74-470.47 939.57 255.4 1453.82 71.47" stroke="#96aede" stroke-width="1.97"/><path d="M-583.9 328.01C227-159.1 378.32 583.73 873.56 411.73" stroke="#90a9dc" stroke-width="1.9"/><path d="M-585.47 342.97c826.88-503.78 984.54 256.2 1461.09 96.3" stroke="#89a4da" stroke-width="1.84"/><path d="M-587.21 357.93C255.82-162.51 419.99 614.6 877.5 466.64" stroke="#839fd8" stroke-width="1.77"/></g></svg>
