<svg fill="none" height="25" width="171" xmlns="http://www.w3.org/2000/svg"><mask id="a" height="8" maskUnits="userSpaceOnUse" width="11" x="15" y="17"><path clip-rule="evenodd" d="M15.05 17.39h10.78v7.2H15.05z" fill="#fff" fill-rule="evenodd"/></mask><g clip-rule="evenodd" fill-rule="evenodd"><g fill="#0a0b09"><path d="m131.86 4.67-1.37 1.27h-.02l-1.43-1.27h-3.07l-1.73 2-1.95-2v13.38h3.91v-9.2h1.77l.55.94v8.26h3.91l-.4-.46.41.46V9.79l.61-.95h1.21l.51.95v8.26h4.03V7.72l-3.1-3.05zM45.23 12.61l-1.43 1.36h-4.11v-5.2h4.1l1.44 1.58zm-2.7-7.85h-2.84l-2 1.92-2-1.92v17.85h4v-4.63l-.06-.05.06.05h5.65l3.48-3.05v-6.5l-3.48-3.67zM77.2 12.99v-3.5h4.23V5.55h-4.22l-2.02-2.2-2.02-1.97v13.66l3.94 3h5.02V14.1h-3.27zM66.76 14.11h-4.15l-1.45-1.54v-2.22l1.45-1.33h4.15zm0-9.02h-5.7l-3.52 3v6.36l3.51 3.6h5.71l2.01-1.88 2.02 1.88V9.02l-2.02-1.9zM113.63 5.04l-2.02 2.07-2.02-2.07v13h4.03V9h4.17l2.5 2.57V7.1l-2.6-2.1zM84.1 3.5v14.55h4.03V13.2h4.23V9.27h-4.23v-3.5l1.66-1.32h3.27V.49h-5.02zM53.02 2.7 51 .5V18.04h4.03V4.88zM103.83 12.54l-1.5 1.55H99.6l-1.5-1.55v-2.23l1.5-1.33h2.74l1.5 1.33zm-5.85-7.52-3.65 3.01v6.4l3.65 3.62h5.96l3.65-3.62v-6.4l-3.64-3zM150.89 9.15v3.25l-1.43 2.03h-2.95l-1.43-2.03V5.9l1.43-2.04h2.95l1.43 2.04zM144.97.4l-3.74 3.48v10.5l3.74 3.5H151l3.74-3.5V3.9L151 .41zM167.45 7.53l-.13-.1.03.1h-.07l.04-.1h-5.19l-1.05-1V5.08l1.05-1.2h3.33l2.09 1.83 3.18-1.8L167 .4h-6.04l-3.73 3.5v4.32l3.42 2.63h3.42v.01h1.4l1.41 1v1.35l-1.42 1.2h-2.96l-2.08-1.84-3.2 1.8 3.74 3.5H167l3.73-3.5v-4.32l-3.28-2.53z"/></g><path d="M4.7.15h2.44L3.3 4.07z" fill="#56b146"/><path d="M2 10.52S.03 6.88 0 6.88h1.96z" fill="#c3233d"/><path d="M1.96 6.89h4.02L2 10.52z" fill="#d5246a"/><path d="m5.83 13.72.15-6.83L2 10.52z" fill="#e77a2b"/><path d="m10.64 10.32-4.81 3.4.15-6.83z" fill="#fac922"/><path d="M13.63 5.82 5.98 6.9l4.66 3.43z" fill="#56b146"/><path d="M11.86.15 8.77 3.99l4.86 1.83z" fill="#c3233d"/><path d="M19.11.15h-7.25l1.77 5.67z" fill="#487fb5"/><path d="m5.98 6.89 7.65-1.07L8.77 4z" fill="#d5246a"/><path d="M20.49 5.82h-6.86L19.1.15z" fill="#23477b"/><path d="m17.05 12.14-6.41-1.82 2.99-4.5z" fill="#419845"/><path d="m20.49 5.82-3.44 6.32-3.42-6.32z" fill="#014c3d"/><path d="m22.9 10.32-5.85 1.82 3.44-6.32z" fill="#419845"/><path d="m21.83 14-4.78-1.86 5.84-1.82z" fill="#56b146"/><path d="m19.11.15 5.28 4.4-3.9 1.27z" fill="#487fb5"/><path d="m20.49 5.82 3.9-1.27-1.5 5.77z" fill="#008b47"/><path d="m22.9 10.32 5.4 1.03L21.83 14z" fill="#014c3d"/><path d="m28.3 11.35.06 5.2L21.83 14z" fill="#419845"/><path d="m21.83 14 6.53 2.55-4.93.84z" fill="#23477b"/><path d="m28.36 16.55-2.53 5.67-2.4-4.83z" fill="#56b146"/><g mask="url(#a)"><path d="m23.43 17.39 2.4 4.83-3.66-2.06z" fill="#487fb5"/><path d="m25.83 22.22-3.62 2.4-.04-4.46z" fill="#23477b"/><path d="m22.17 20.16.04 4.46-1.82-2.9z" fill="#487fb5"/><path d="M22.2 24.62h-4.82l3.01-2.9z" fill="#23477b"/><path d="m20.4 21.72-3.02 2.9.53-2.9z" fill="#c3233d"/><path d="m17.91 21.72-.53 2.9-2.33-2.9z" fill="#d5246a"/></g><path d="M17.91 21.72h-2.86l1.7-2z" fill="#c3233d"/><path d="M15.05 21.72v-3.8l1.7 1.8z" fill="#e77a2b"/><path d="m24.4 4.55 3.9 6.8-5.4-1.03z" fill="#56b146"/><path d="m17.91 18.03-.39-1.95 2.86 1.31z" fill="#419845"/><path d="m15.05 17.93 2.86.1-.39-1.95z" fill="#56b146"/><path d="m16.75 19.71 1.16-1.68-2.86-.1z" fill="#fac922"/><path d="M6.65 2.67 8.77 4l-.1-2.6z" fill="#419845"/><path d="M6.65 2.67 8.67 1.4 7.14.15z" fill="#56b146"/><path d="M3.3 4.07 7.15.15l-.49 2.52z" fill="#008b47"/><path d="M8.77 4 6.65 2.66l-.98 1.38z" fill="#014c3d"/><path d="m3.3 4.07 3.35-1.4-.98 1.38z" fill="#419845"/><path d="m1.96 6.89 3.7-2.84.32 2.84z" fill="#e77a2b"/><path d="m5.67 4.05.31 2.84 2.79-2.9z" fill="#c3233d"/><path d="M1.96 6.89 3.3 4.07l2.36-.02z" fill="#fac922"/><path d="m11 13.71-1.15 2h3.34z" fill="#419845"/><path d="m8.5 13.72 1.35 2L11 13.7z" fill="#56b146"/><path d="M10.64 10.32 11 13.7l6.04-1.57z" fill="#014c3d"/><path d="m13.2 15.71 3.85-3.57L11 13.7z" fill="#008b47"/></g></svg>
