<svg xmlns="http://www.w3.org/2000/svg" xmlns:xlink="http://www.w3.org/1999/xlink" width="60.008" height="11.437" viewBox="0 0 60.008 11.437">
  <defs>
    <linearGradient id="linear-gradient" y1="0.5" x2="1" y2="0.5" gradientUnits="objectBoundingBox">
      <stop offset="0" stop-color="#fcd635"/>
      <stop offset="1" stop-color="#f7a928"/>
    </linearGradient>
  </defs>
  <g id="Group_48" data-name="Group 48" transform="translate(-43.339 -2187.078)">
    <path id="Path_5" data-name="Path 5" d="M-58.2,52.468c-.427.3-3.168-1.625-3.693-1.629s-3.3,1.88-3.719,1.569.57-3.507.412-4.006-2.812-2.546-2.646-3.042,3.521-.543,3.948-.847,1.559-3.454,2.084-3.449,1.606,3.171,2.028,3.483,3.776.411,3.934.91-2.529,2.5-2.695,3S-57.769,52.164-58.2,52.468Z" transform="translate(111.189 2146.014)" fill="url(#linear-gradient)"/>
    <path id="Path_6" data-name="Path 6" d="M-58.2,52.468c-.427.3-3.168-1.625-3.693-1.629s-3.3,1.88-3.719,1.569.57-3.507.412-4.006-2.812-2.546-2.646-3.042,3.521-.543,3.948-.847,1.559-3.454,2.084-3.449,1.606,3.171,2.028,3.483,3.776.411,3.934.91-2.529,2.5-2.695,3S-57.769,52.164-58.2,52.468Z" transform="translate(127.189 2146.014)" fill="url(#linear-gradient)"/>
    <path id="Path_7" data-name="Path 7" d="M-58.2,52.468c-.427.3-3.168-1.625-3.693-1.629s-3.3,1.88-3.719,1.569.57-3.507.412-4.006-2.812-2.546-2.646-3.042,3.521-.543,3.948-.847,1.559-3.454,2.084-3.449,1.606,3.171,2.028,3.483,3.776.411,3.934.91-2.529,2.5-2.695,3S-57.769,52.164-58.2,52.468Z" transform="translate(143.189 2146.014)" fill="url(#linear-gradient)"/>
    <path id="Path_8" data-name="Path 8" d="M-58.2,52.468c-.427.3-3.168-1.625-3.693-1.629s-3.3,1.88-3.719,1.569.57-3.507.412-4.006-2.812-2.546-2.646-3.042,3.521-.543,3.948-.847,1.559-3.454,2.084-3.449,1.606,3.171,2.028,3.483,3.776.411,3.934.91-2.529,2.5-2.695,3S-57.769,52.164-58.2,52.468Z" transform="translate(159.189 2146.014)" fill="url(#linear-gradient)"/>
  </g>
</svg>
