<svg xmlns="http://www.w3.org/2000/svg" width="18.457" height="18.457" viewBox="0 0 18.457 18.457">
  <path id="Path_235" data-name="Path 235" d="M17.688,3.846H15.843V2.923a.923.923,0,0,0-1.846,0v.923H8.46V2.923a.923.923,0,1,0-1.846,0v.923H4.769A2.769,2.769,0,0,0,2,6.614V17.688a2.769,2.769,0,0,0,2.769,2.769h12.92a2.769,2.769,0,0,0,2.769-2.769V6.614a2.769,2.769,0,0,0-2.769-2.769Zm.923,13.843a.923.923,0,0,1-.923.923H4.769a.923.923,0,0,1-.923-.923v-6.46H18.611Zm0-8.306H3.846V6.614a.923.923,0,0,1,.923-.923H6.614v.923a.923.923,0,1,0,1.846,0V5.691H14v.923a.923.923,0,0,0,1.846,0V5.691h1.846a.923.923,0,0,1,.923.923Z" transform="translate(-2 -2)" fill="#d1d5db"/>
</svg>
