<svg id="close_button" xmlns="http://www.w3.org/2000/svg" width="65.664" height="24" viewBox="0 0 65.664 24">
  <text id="close" transform="translate(65.664 19)" fill="#fff" font-size="20" font-family="WorkSans-Medium, Work Sans" font-weight="500"><tspan x="-51.86" y="0">close</tspan></text>
  <path id="Path_1034" data-name="Path 1034" d="M30.985,29.593a.971.971,0,0,1,0,1.392,1,1,0,0,1-1.392,0l-3.979-3.979-3.979,3.979a1,1,0,0,1-1.392,0,.971.971,0,0,1,0-1.392l3.979-3.979-3.979-3.979a.984.984,0,0,1,1.392-1.392l3.979,3.979,3.979-3.979a.984.984,0,1,1,1.392,1.392l-3.979,3.979Z" transform="translate(-19.95 -11.609)" fill="#fff"/>
</svg>
