<svg xmlns="http://www.w3.org/2000/svg" width="20.528" height="20.528" viewBox="0 0 20.528 20.528">
  <g id="Layer_2" data-name="Layer 2" transform="translate(-1.9 -1.9)">
    <path id="Path_1062" data-name="Path 1062" d="M12.164,2A10.164,10.164,0,1,0,22.328,12.164,10.164,10.164,0,0,0,12.164,2Zm0,18.634a8.47,8.47,0,1,1,8.47-8.47,8.47,8.47,0,0,1-8.47,8.47Z" transform="translate(0 0)" fill="#575a63" stroke="#575a63" stroke-width="0.2"/>
    <path id="Path_1063" data-name="Path 1063" d="M8.354,8.275a.847.847,0,0,0-.847.847v5.76a.847.847,0,1,0,1.694,0V9.122A.847.847,0,0,0,8.354,8.275Zm0-3.473a.9.9,0,0,0-.864.881v.136a.8.8,0,0,0,.864.8A.881.881,0,0,0,9.2,5.768v-.2A.762.762,0,0,0,8.354,4.8Z" transform="translate(3.81 1.941)" fill="#575a63" stroke="#575a63" stroke-width="0.2"/>
  </g>
</svg>
