<svg xmlns="http://www.w3.org/2000/svg" width="15.181" height="12.456" viewBox="0 0 15.181 12.456">
  <path id="Path_93" data-name="Path 93" d="M9.841,16.456a.779.779,0,0,1-.437-.134,58.92,58.92,0,0,1-5.563-4.181A5.278,5.278,0,0,1,2.25,8.185,4.183,4.183,0,0,1,9.841,5.756a4.183,4.183,0,0,1,7.591,2.428,5.278,5.278,0,0,1-1.591,3.956,59.434,59.434,0,0,1-5.563,4.181A.778.778,0,0,1,9.841,16.456ZM6.435,5.557A2.631,2.631,0,0,0,3.807,8.185,3.714,3.714,0,0,0,4.941,11.04a51.779,51.779,0,0,0,4.9,3.695,51.78,51.78,0,0,0,4.9-3.695,3.714,3.714,0,0,0,1.134-2.856,2.628,2.628,0,0,0-5.255,0,.779.779,0,0,1-1.557,0A2.631,2.631,0,0,0,6.435,5.557Z" transform="translate(-2.25 -4)" fill="#dd2e44"/>
</svg>
