<svg xmlns="http://www.w3.org/2000/svg" width="16" height="16" viewBox="0 0 16 16">
  <path id="Full_copy" d="M2,16H14a1.97,1.97,0,0,0,2-2V2a1.969,1.969,0,0,0-2-2H2A1.969,1.969,0,0,0,0,2V14A1.969,1.969,0,0,0,2,16ZM11,2.5a.5.5,0,0,1,.5-.5h2a.5.5,0,0,1,.5.5v2a.5.5,0,0,1-.5.5h-2a.5.5,0,0,1-.5-.5ZM8.012,4.857A3.164,3.164,0,0,1,11.224,7.97a3.164,3.164,0,0,1-3.212,3.113A3.164,3.164,0,0,1,4.8,7.97,3.164,3.164,0,0,1,8.012,4.857ZM2,6.5l1.247.271A4.667,4.667,0,0,0,3.04,8.143,4.9,4.9,0,0,0,8.012,12.96a4.9,4.9,0,0,0,4.972-4.817,4.667,4.667,0,0,0-.206-1.372L14,6.5v7c0,.35-.15.5-.5.5H2.5c-.349,0-.5-.15-.5-.5Z" fill="#fff"/>
</svg>
