<svg xmlns="http://www.w3.org/2000/svg" width="22.9" height="21.913" viewBox="0 0 22.9 21.913">
  <g id="Group_6736" data-name="Group 6736" transform="translate(-4.65 -6.65)">
    <path id="Path_1123" data-name="Path 1123" d="M21.773,17.36a5.373,5.373,0,0,0-2.072.412,8.406,8.406,0,0,0-3-2.2,4.932,4.932,0,1,0-6.628,0A8.4,8.4,0,0,0,5,23.28v.987a1.481,1.481,0,0,0,1.48,1.48H17.227a5.426,5.426,0,1,0,4.546-8.387ZM9.44,11.933a3.947,3.947,0,1,1,3.947,3.947A3.952,3.952,0,0,1,9.44,11.933ZM16.719,24.76H6.48a.493.493,0,0,1-.493-.493V23.28a7.4,7.4,0,0,1,5.044-7.013,4.929,4.929,0,0,0,4.711,0A7.414,7.414,0,0,1,18.8,18.245a5.422,5.422,0,0,0-2.084,6.514Zm5.054,2.467a4.44,4.44,0,1,1,4.44-4.44A4.445,4.445,0,0,1,21.773,27.226Z" transform="translate(0)" fill="#525863" stroke="#525863" stroke-width="0.7"/>
    <path id="Path_1124" data-name="Path 1124" d="M71.493,59a.492.492,0,0,0-.493.493v2.96a.493.493,0,0,0,.987,0v-2.96A.493.493,0,0,0,71.493,59Z" transform="translate(-49.72 -39.173)" fill="#525863" stroke="#525863" stroke-width="0.7"/>
    <circle id="Ellipse_2327" data-name="Ellipse 2327" cx="0.5" cy="0.5" r="0.5" transform="translate(21.283 24.555)" fill="#525863" stroke="#525863" stroke-width="0.7"/>
  </g>
</svg>
