<svg xmlns="http://www.w3.org/2000/svg" width="31.23" height="15.615" viewBox="0 0 31.23 15.615">
  <path id="Path_226" data-name="Path 226" d="M14.492,19.492H9.808a4.6,4.6,0,0,1-4.685-4.685,4.6,4.6,0,0,1,4.685-4.685h4.685a1.475,1.475,0,0,0,1.562-1.562A1.475,1.475,0,0,0,14.492,7H9.808A7.732,7.732,0,0,0,2,14.808a7.732,7.732,0,0,0,7.808,7.808h4.685a1.562,1.562,0,0,0,0-3.123ZM25.423,7H20.738a1.475,1.475,0,0,0-1.562,1.562,1.475,1.475,0,0,0,1.562,1.562h4.685a4.6,4.6,0,0,1,4.685,4.685,4.6,4.6,0,0,1-4.685,4.685H20.738a1.562,1.562,0,0,0,0,3.123h4.685a7.732,7.732,0,0,0,7.808-7.808A7.732,7.732,0,0,0,25.423,7ZM11.369,14.808a1.475,1.475,0,0,0,1.562,1.562H22.3a1.475,1.475,0,0,0,1.562-1.562A1.475,1.475,0,0,0,22.3,13.246H12.931A1.475,1.475,0,0,0,11.369,14.808Z" transform="translate(-2 -7)"/>
</svg>
