<svg id="Group_1085" data-name="Group 1085" xmlns="http://www.w3.org/2000/svg" width="33.414" height="33.414" viewBox="0 0 33.414 33.414">
  <path id="Path_1027" data-name="Path 1027" d="M0,0H33.414V33.414H0Z" fill="none"/>
  <path id="Path_1028" data-name="Path 1028" d="M10.606,53.611,7.99,51h2.616Zm19.84,0L33.061,51H30.445Z" transform="translate(-3.818 -24.373)" fill="#a3313a"/>
  <path id="Path_1029" data-name="Path 1029" d="M47.182,9.182H43.01V5.01Z" transform="translate(-20.555 -2.394)" fill="#b2b2b2"/>
  <path id="Path_1030" data-name="Path 1030" d="M28.663,5H13.83a.83.83,0,0,0-.83.83V32.457a.835.835,0,0,0,.83.835H32.01a.835.835,0,0,0,.83-.861V9.177H28.663Z" transform="translate(-6.213 -2.39)" fill="#f1f1f1"/>
  <path id="Path_1031" data-name="Path 1031" d="M8.522,33H32.539a.522.522,0,0,1,.522.522V42.4H8V33.522A.522.522,0,0,1,8.522,33Z" transform="translate(-3.823 -15.771)" fill="#c84d52"/>
  <path id="Path_1032" data-name="Path 1032" d="M22.714,40.589v1.5H21.67V37.816h1.671A1.613,1.613,0,0,1,24.5,38.2a1.331,1.331,0,0,1,.4,1.044,1.425,1.425,0,0,1-.178.7,1.248,1.248,0,0,1-.522.491,1.833,1.833,0,0,1-.851.178Zm1.149-1.373q0-.564-.627-.564h-.522v1.112h.522Q23.863,39.764,23.863,39.216Zm5.127,1.827a1.9,1.9,0,0,1-.773.757,2.454,2.454,0,0,1-1.185.271H25.419V37.816h1.613a2.48,2.48,0,0,1,1.185.266,1.848,1.848,0,0,1,.773.752,2.245,2.245,0,0,1,.266,1.112A2.276,2.276,0,0,1,28.99,41.043Zm-1.112-.214a1.378,1.378,0,0,0,0-1.8,1.305,1.305,0,0,0-.94-.318h-.486v2.438h.486a1.305,1.305,0,0,0,.94-.3Zm4.751-3.013v.825H30.875v.935h1.352v.783H30.875v1.728H29.83V37.816Z" transform="translate(-10.356 -18.071)" fill="#fff"/>
  <path id="Path_1033" data-name="Path 1033" d="M28.039,9.776a2.684,2.684,0,0,1-.1,1.076c-.465,1.6-2.021,7.445-3.2,8.275-1.676,1.19-2.548-.162-1.655-1.123s6.281-2.24,8-2.24c2.235,0,1.947,1.979.679,1.859-1.431-.136-5.007-2.574-5.221-7.21C26.446,8.763,27.877,8.455,28.039,9.776Z" transform="translate(-10.862 -4.278)" fill="none" stroke="#c84d52" stroke-miterlimit="10" stroke-width="1"/>
</svg>
