<svg id="Group_6693" data-name="Group 6693" xmlns="http://www.w3.org/2000/svg" width="24" height="24" viewBox="0 0 24 24">
  <path id="Path_3682" data-name="Path 3682" d="M0,0H24V24H0Z" fill="none"/>
  <path id="Path_3565" data-name="Path 3565" d="M5.212,18.789A9.6,9.6,0,1,1,12,21.6a9.6,9.6,0,0,1-6.788-2.811Zm1.273-12.3A7.789,7.789,0,1,0,12,4.2,7.809,7.809,0,0,0,6.485,6.489Zm6.977,8.253L11.34,12.62a.974.974,0,0,1-.285-.688V7.084a.973.973,0,1,1,1.946,0v4.441l1.837,1.837a.973.973,0,1,1-1.376,1.376Z" fill="#525863"/>
</svg>
