<svg xmlns="http://www.w3.org/2000/svg" width="60" height="60" viewBox="0 0 60 60">
  <g id="Group_1182" data-name="Group 1182" transform="translate(-995 -918)">
    <rect id="Rectangle_243" data-name="Rectangle 243" width="60" height="60" rx="5" transform="translate(995 918)" fill="#2cc9ff"/>
    <path id="Path_233" data-name="Path 233" d="M21.822,26.893H13.773c-2.133,0-4.073-3.006-4.073-5.334V17.2H21.822a1.635,1.635,0,0,0,1.649-1.649A1.578,1.578,0,0,0,21.822,13.9H9.7V2.649A1.557,1.557,0,0,0,8.149,1,1.578,1.578,0,0,0,6.5,2.649v18.91c0,4.17,3.394,8.534,7.273,8.534h8.049a1.635,1.635,0,0,0,1.649-1.649,1.5,1.5,0,0,0-1.649-1.552Z" transform="translate(1010 932.5)" fill="#fff" stroke="#fff" stroke-width="2"/>
  </g>
</svg>
