<svg xmlns="http://www.w3.org/2000/svg" width="19.022" height="18.999" viewBox="0 0 19.022 18.999">
  <g id="v-edit" transform="translate(-1362 -706)">
    <path id="Path_42615" data-name="Path 42615" d="M2.78,19.473H14.693a2.788,2.788,0,0,0,2.78-2.79V10.7a.794.794,0,0,0-1.588,0v5.986a1.2,1.2,0,0,1-1.191,1.2H2.78a1.2,1.2,0,0,1-1.191-1.2V4.79a1.2,1.2,0,0,1,1.191-1.2H8.737A.794.794,0,1,0,8.737,2H2.78A2.788,2.788,0,0,0,0,4.79V16.683a2.788,2.788,0,0,0,2.78,2.79Z" transform="translate(1362 705.526)" fill="#28b8dc"/>
    <path id="Path_42616" data-name="Path 42616" d="M9.288,8.391l-.627,2.87a.794.794,0,0,0,.215.731.824.824,0,0,0,.731.214l2.864-.628a.794.794,0,0,0,.392-.215L20.1,4.124a2.383,2.383,0,0,0,0-3.37,2.438,2.438,0,0,0-3.369,0L9.506,8a.794.794,0,0,0-.218.391Zm8.568-6.513a.812.812,0,0,1,1.123,0,.8.8,0,0,1,0,1.122l-.562.562L17.295,2.439Zm-7.069,7.08,5.38-5.394,1.112,1.117-5.382,5.4-1.426.313Z" transform="translate(1360.222 705.921)" fill="#28b8dc"/>
  </g>
</svg>
