<svg width="296" height="312" fill="none" xmlns="http://www.w3.org/2000/svg"><mask id="a" maskUnits="userSpaceOnUse" x="0" y="0" width="296" height="312"><path fill="#C4C4C4" d="M0 0h296v312H0z"/></mask><g mask="url(#a)"><path d="M95.53 38.94c6.12-5.44 14.04-9 23.77-10.7 9.73-1.68 20-.61 30.85 3.22 10.8 3.82 20.68 10.74 29.64 20.74 8.33 9.3 13.95 19.04 16.88 29.22a53.6 53.6 0 01.78 29 46.03 46.03 0 01-14.03 22.91 39.78 39.78 0 01-17.3 9.5 58.47 58.47 0 01-17.68 1.63c-5.7-.37-15.6-1.34-29.7-2.92a93.97 93.97 0 00-9.94-.55 28.28 28.28 0 00-6.75.77 26.84 26.84 0 00-5.09 1.86c-1.57.77-4.23 2.2-8.01 4.31-7.76 4.75-14.5 3.92-20.24-2.49a15.73 15.73 0 01-4.26-11.34c.15-4.22 2.37-8.25 6.66-12.1a45.68 45.68 0 0132.55-12.69c6.89.23 13.76.81 20.6 1.73a270.2 270.2 0 0016.08 1.62 36.82 36.82 0 0010.24-.86 19.67 19.67 0 008.98-4.65 22.85 22.85 0 007.86-17.34c.1-7-2.51-13.5-7.86-19.5-6.32-7.05-12.75-10.65-19.29-10.79-6.53-.14-14.32 1.74-23.34 5.64-9.19 4.31-16.5 3.43-21.96-2.62a16.35 16.35 0 01-4.34-12.48 15.73 15.73 0 014.9-11.12zM32.16 180.12a20.3 20.3 0 01-5.36-13.65c-.08-5.17 2.15-9.8 6.7-13.88a18.42 18.42 0 0113.98-4.84 19.18 19.18 0 0113.43 6.69 18.95 18.95 0 015 13.9 18.93 18.93 0 01-6.5 13.25c-4.5 4.01-9.3 5.72-14.43 5.14a19.66 19.66 0 01-12.82-6.61z" fill="#4299E1"/><path opacity=".5" d="M212.76 126.84a24.91 24.91 0 018.8-10.83 32.59 32.59 0 0115.54-5.87 38.8 38.8 0 0119.18 2.8 40.33 40.33 0 0115.1 9.9 28.76 28.76 0 017.35 13.7 24.7 24.7 0 01-1.18 14.42 21.27 21.27 0 01-6 8.7 31.31 31.31 0 01-8.09 5.04c-2.8 1.2-7.79 3.11-14.93 5.74a45.94 45.94 0 00-4.89 2.13 14.7 14.7 0 00-3.04 2 13.67 13.67 0 00-1.99 2.1c-.56.75-1.5 2.07-2.8 3.93-2.62 4.15-6.05 5.37-10.28 3.67a8.47 8.47 0 01-4.78-4.4 9.17 9.17 0 01.3-7.4 24.49 24.49 0 0112.52-13.89c3.35-1.56 6.78-2.95 10.27-4.17a146.1 146.1 0 008.09-3.08c1.69-.73 3.27-1.7 4.7-2.87a10.6 10.6 0 003.18-4.4 12.19 12.19 0 00-.4-10.18 15 15 0 00-8.44-7.37c-4.72-1.86-8.65-2.04-11.8-.53a30.44 30.44 0 00-9.8 8.28c-3.38 4.27-7.1 5.59-11.17 3.93a8.79 8.79 0 01-5.08-4.94 8.32 8.32 0 01-.36-6.4zm3.58 82.85a10.9 10.9 0 01-5.85-5.24 9.6 9.6 0 01-.16-8.2 9.8 9.8 0 015.52-5.7 10.24 10.24 0 018.04 0 10.13 10.13 0 013.42 2.15 10.14 10.14 0 012.39 11.21 9.64 9.64 0 01-5.7 5.93 10.5 10.5 0 01-7.66-.15z" fill="#4299E1"/><path d="M94.11 229.73s-18.14 86.22-22.97 114.44C65.9 375.1 54.38 463.6 54.38 463.6l16.84 6.12s26.37-93.85 30.36-123.57c8.38-29.05 29.6-116.41 29.6-116.41H94.12z" fill="#4299E1"/><path opacity=".3" d="M117.4 257.87c-5.88 14.13-8.02 39.87-7 55.26 4.67-18.17 9.85-38.92 13.86-55.18-1.3-4.47-3.08-9.16-6.85-.08z" fill="#000"/><path d="M108.15 155.88a143.9 143.9 0 01-2.62 5.95 160.2 160.2 0 01-9.26 16.91 102.65 102.65 0 01-16.51 20.68l-.24.23a5.57 5.57 0 01-1.1.78 9.17 9.17 0 01-3.53 1.06c-.7.05-1.41.05-2.12 0a21.94 21.94 0 01-3.15-.44c-1.86-.39-3.51-.87-5.14-1.38a101.04 101.04 0 01-9.17-3.53 128.55 128.55 0 01-8.72-4.1 147.5 147.5 0 01-8.44-4.65 3.17 3.17 0 01.2-5.53 3.17 3.17 0 012.18-.26c6.09 1.47 12.16 3.1 18.13 4.56a163.69 163.69 0 008.81 1.96 36.63 36.63 0 004.08.59c.52.03 1.03.03 1.55 0h.22c-.47 0-.92.15-1.31.4l-1.31 1.01a87.53 87.53 0 007.04-8.89c2.2-3.18 4.29-6.55 6.3-9.93 2-3.39 3.92-6.94 5.75-10.5a361.2 361.2 0 005.24-10.62l.08-.17a7.17 7.17 0 0113.1 5.83l-.06.04z" fill="#FFC3BD"/><path d="M106.13 142c-8.44.24-14.23 9.4-19.77 20.83a48.76 48.76 0 0017.64 17.7s22.18-39.08 2.13-38.52z" fill="#E0E0E0"/><path d="M37.73 187.45l-7.6-1.94 5.92-7.62s6.56 1.04 9.05 6.56l-2.7 1.92a5.77 5.77 0 01-2.22 1.05 5.77 5.77 0 01-2.45.03zm-9.45-9.73l1.46-1.31a3.4 3.4 0 014.37-.1l1.94 1.57-5.93 7.61-2.42-3.77a3.08 3.08 0 01.58-4z" fill="#FFC3BD"/><path d="M114.38 229.73s2.3 86.68 3.93 115.24c1.84 31.28 17.37 123.96 17.37 123.96h19.01s-4.17-93.86-7.31-124.55c1.3-33.61 2.17-114.68 2.17-114.68l-35.17.03z" fill="#4299E1"/><path d="M98.48 148.68a9.95 9.95 0 017.65-6.67 63.7 63.7 0 017.78-1.31 214.5 214.5 0 0123.6 0c4.11.18 8.3.67 11.65 1.14h.12a6.38 6.38 0 014.36 2.5 6.38 6.38 0 011.18 4.9 302.54 302.54 0 00-5.12 40.46c-.82 19.75.29 35.24-.1 40H94.1c-3.37-48.15.99-70.05 4.37-81.02z" fill="#E0E0E0"/><path d="M141.27 111.32a6.9 6.9 0 01-1.04 11.8c2.24 3.7-3.72 10.26-9.73 6.15-6-4.12 2.48-21.45 10.77-17.95zm-24.83-3.99a4.75 4.75 0 01-4.16-2.2 4.76 4.76 0 01-.23-4.7c-2.8-1.08-2.3-7.18 2.74-7.44 5.03-.26 7.63 12.81 1.65 14.34z" fill="#263238"/><path d="M114.8 145.85a2.94 2.94 0 011.03-4.94c5.07-1.86 5.98-5.53 5.58-9.53-.12-1.13-.3-2.24-.55-3.35l8.58-6.85 6.32-5.04c-1.57 6.56-3.33 17.98 0 23.76a2.97 2.97 0 01-.6 3.83c-2.18 1.92-6.63 4.41-13.98 4.02-3.37-.17-5.24-.94-6.38-1.9z" fill="#FFC3BD"/><path d="M95.63 148.92a11.55 11.55 0 018.4-7.63 70.88 70.88 0 017.52-.79 1.59 1.59 0 011.42.53 1.6 1.6 0 01.35 1.48c-4.4 16.3-10.66 48.94-8.72 89.35a1.86 1.86 0 01-.53 1.37 1.85 1.85 0 01-1.36.55H91.7a1.88 1.88 0 01-1.9-1.73c-3.32-49.39 2.54-74 5.83-83.13zm53.23-8.06a104.02 104.02 0 00-10.63-.97 2.74 2.74 0 00-2.86 2.07c-4.08 17.96-7.71 57.86-7.87 89.97a1.86 1.86 0 001.9 1.82h19.67a1.86 1.86 0 001.9-1.78c.13-6.47-.76-21.6 0-40.4a281.9 281.9 0 015.03-39.89c.68-3.68-3.25-10.27-7.14-10.82z" fill="#263238"/><path d="M155.77 146.56a252.92 252.92 0 0111.65 19.37 160.2 160.2 0 015.13 10.3c.78 1.8 1.56 3.61 2.28 5.54a38.95 38.95 0 011.83 6.43c.33 1.6.4 3.23.21 4.85a20.95 20.95 0 01-1 3.84 38.76 38.76 0 01-2.75 5.87 89.92 89.92 0 01-6.43 9.8 159.52 159.52 0 01-14.84 17.13 3.57 3.57 0 01-4.74.28 3.56 3.56 0 01-.82-4.67v-.08a498.46 498.46 0 0011.15-18.63 106.8 106.8 0 004.71-9.28c1.32-3.05 2.3-6.37 1.61-6.47a33.63 33.63 0 00-1.52-4.09 84.64 84.64 0 00-2.19-4.57c-1.6-3.08-3.31-6.22-5.1-9.3a640.13 640.13 0 00-11.22-18.47v-.08a7.17 7.17 0 0112.04-7.77z" fill="#FFC3BD"/><path d="M147.61 140.69c8.45-.16 12.92 6.98 18.45 18.35-6.27 11.6-18.22 16.62-18.22 16.62s-16.82-34.69-.23-34.98z" fill="#E0E0E0"/><path d="M143.29 224.95l-4.87 1.55 9.01 6.84s7.37-3.82 5.06-7.3l-1.5-.67a10.92 10.92 0 00-7.7-.42zm-7.6 7.56l5.47 5.49a1.78 1.78 0 001.35.5c.24-.01.48-.08.7-.19a1.79 1.79 0 00.57-.46l3.64-4.5-9.01-6.85-2.8 3.84a1.6 1.6 0 00.09 2.17z" fill="#FFC3BD"/><path opacity=".2" d="M120.86 128.09c.25 1.1.43 2.21.55 3.34 3.25.83 7.86-2.9 8.3-6.06a20.1 20.1 0 00-.27-4.14l-8.58 6.86z" fill="#000"/><path d="M141.15 106.84c-2.22 9.67-3 15.44-8.95 19.75a13.65 13.65 0 01-21.65-9.74c-.76-9.07 3-23.37 13.58-25.92 10.6-2.54 19.23 6.22 17.02 15.9z" fill="#FFC3BD"/><path d="M136.67 115.3c-2.8.15-5.8-9.75.39-14.52-.98.54-3.67-.45-3.2-2.3-1.82.77-9.8.44-7.86-2.8-4.06 1.05-12.9-.7-13.84-4.58-.94-3.86 3.62-4 4.33-3.48-2-2.8-1.97-6.92 3.36-8.42 5.32-1.5 13.34 6.2 13.34 6.2-.84-2.03 2.11-3.67 5.17-1.92 3.05 1.74 4.48 6.7 4.48 6.7 0-1.5 7.13.5 3.75 6.77 3.5 1.31 5.1 3.17 4.88 6.41-.23 3.24-2.44 3.42-2.44 3.42a5.62 5.62 0 01-1.93 6.66c-3.63 2.93-6.8-.5-10.43 1.87z" fill="#263238"/><path d="M142.22 116.05a9.44 9.44 0 01-5.15 3.74c-2.7.72-3.61-1.7-2.51-4.21 1-2.27 3.59-5.39 6.13-5 2.55.4 3.06 3.22 1.54 5.47z" fill="#FFC3BD"/><path d="M125.12 106.44c-.13.79-.69 1.38-1.22 1.31-.54-.06-.88-.77-.75-1.57s.68-1.31 1.22-1.31c.54 0 .81.77.75 1.57zm-9.6-1.74c-.13.8-.67 1.39-1.2 1.31-.54-.08-.88-.77-.75-1.57s.67-1.31 1.2-1.31c.54 0 .88.78.75 1.57z" fill="#263238"/><path d="M119.31 106.48a29.43 29.43 0 01-5.07 6.25 4.91 4.91 0 003.84 1.32l1.23-7.57z" fill="#ED847E"/><path d="M119.78 117.95a7.2 7.2 0 005.36-1.57.25.25 0 000-.34.26.26 0 00-.34 0 6.92 6.92 0 01-5.88 1.31.23.23 0 00-.3.18.22.22 0 00.1.25.24.24 0 00.1.03c.31.07.64.12.96.14zm5.73-16.96a.49.49 0 00-.32.27.46.46 0 00.11.52 4.75 4.75 0 004.12 1.54.47.47 0 00.32-.18.46.46 0 00.08-.36.5.5 0 00-.37-.39.5.5 0 00-.2 0 3.8 3.8 0 01-3.2-1.3.52.52 0 00-.54-.1zm-12.7-2.37a.56.56 0 00.46 0 4.27 4.27 0 013.61-.1.5.5 0 00.67-.17.5.5 0 00-.2-.65 5.25 5.25 0 00-4.53 0 .44.44 0 00-.24.27.44.44 0 00.03.36.51.51 0 00.2.29z" fill="#263238"/></g></svg>
